PathFileType	4	(X/Y/Z)	pose_F01_0-96.trc
DataRate	CameraRate	NumFrames	NumMarkers	Units	OrigDataRate	OrigDataStartFrame	OrigNumFrames
30	30	9	21	m	30	24	96
Frame#	Time	CHip			RHip			RKnee			RAnkle			RBigToe			RSmallToe			RHeel			LHip			LKnee			LAnkle			LBigToe			LSmallToe			LHeel			Neck			Nose			RShoulder			RElbow			RWrist			LShoulder			LElbow			LWrist			
		X1	Y1	Z1	X2	Y2	Z2	X3	Y3	Z3	X4	Y4	Z4	X5	Y5	Z5	X6	Y6	Z6	X7	Y7	Z7	X8	Y8	Z8	X9	Y9	Z9	X10	Y10	Z10	X11	Y11	Z11	X12	Y12	Z12	X13	Y13	Z13	X14	Y14	Z14	X15	Y15	Z15	X16	Y16	Z16	X17	Y17	Z17	X18	Y18	Z18	X19	Y19	Z19	X20	Y20	Z20	X21	Y21	Z21	
24	0.8	-0.25994102896287435	1.87744570743541	-0.5184468324058626	-0.270532354816931	1.8739151254889213	-0.44032015915721723	-0.26048706280586637	1.707059514638551	-0.4292359218748079	-0.2563537206572436	1.5511334170480118	-0.4125687377886605	-0.2538790321336253	1.5403709249327362	-0.4597002088988683	-0.2517357508208996	1.548661980416338	-0.4314886396851854	-0.24889367907342655	1.5444780716485478	-0.42485987143996506	-0.24684681410567536	1.88094776378775	-0.5929965446665046	-0.23809619073805302	1.7064406095027251	-0.5867270286233912	-0.23883772600542436	1.5440857697686705	-0.5778298026195732	-0.3926118552749025	1.4794356487390112	-0.9204892524300328	-0.2625644205391719	1.4989100119626007	-0.596962495731763	-0.229607515640069	1.533237776191997	-0.573235747519961	-0.2452327167803395	2.061110347361637	-0.5450540541799046	-0.27401649404930284	2.135681313835001	-0.5289345951853933	-0.2577904729495423	2.056466717053379	-0.44227883454566147	-0.25610881592034934	1.9631290883506318	-0.4109442681611103	-0.27410263866317186	1.875676473388444	-0.363943189457824	-0.22950431360468868	2.066944048371862	-0.6477311736448055	-0.22297663735169332	1.9671167401284824	-0.6679339084502975	-0.2316241961637703	1.8766624204089783	-0.6746797480022956
25	0.8333333333333334	-0.2599559558614402	1.8773964067554916	-0.5185524526027709	-0.2716304916979425	1.875358152908057	-0.4438096438248644	-0.26034265479679397	1.708864897642635	-0.42982572525957086	-0.2564350138939788	1.5516128766115074	-0.4125135436046701	-0.2538790321336253	1.5403709249327362	-0.4597002088988683	-0.2517357508208996	1.548661980416338	-0.4314886396851854	-0.2500425779929902	1.5447923323470698	-0.42822949405030447	-0.24677439706756038	1.8794840067108407	-0.5928437102983454	-0.2410112121814817	1.7051536279114223	-0.5875828898344735	-0.24119933125307888	1.545257295401771	-0.5753709578814249	-0.39054937292750097	1.478863525478333	-0.9236470011114624	-0.26145631319606694	1.4987972856641794	-0.5939134295310831	-0.23405959261660508	1.5344012814316788	-0.5685707602691848	-0.24807972004411427	2.061136244714641	-0.5459829305811158	-0.27402464702785545	2.1356649687642886	-0.5289158598552847	-0.25778873512073397	2.0564613655579946	-0.44229203003422923	-0.2589665414341035	1.9611422600529667	-0.4115436266610937	-0.27404221497326725	1.8709765650275823	-0.3630722629541062	-0.2315346074255094	2.0656341815203847	-0.6451690662897491	-0.22501337226749027	1.965793543385936	-0.6654743702711902	-0.23137268808632894	1.8728203560935646	-0.6740166090409924
26	0.8666666666666667	-0.2600814143296542	1.8722022564441052	-0.517691413380776	-0.2715848323272382	1.8712730853683008	-0.4430311501091596	-0.26011878283680906	1.7067940272173439	-0.42979517348821544	-0.25630047799777356	1.5505572358995503	-0.4126812116904403	-0.2538790321336253	1.5403709249327362	-0.4597002088988683	-0.2517357508208996	1.548661980416338	-0.4314886396851854	-0.24860911883696205	1.542400854070807	-0.425104044722979	-0.24700104497880807	1.875696263006783	-0.5922905986134043	-0.23874048992080493	1.7038806718657482	-0.5899066300694232	-0.2398805680360705	1.5435358476888361	-0.5725288613702999	-0.3904956597649029	1.4792489752118287	-0.923647367591173	-0.37564210917588864	1.4784976554226272	-0.9499845805592215	-0.23100464453077024	1.5320150194238324	-0.5671158855888764	-0.24715133129190678	2.060995011437602	-0.5429922694331324	-0.2740273343466526	2.13565310524243	-0.528894605091033	-0.2577724464328872	2.0564729946529483	-0.4421980766617932	-0.25616320783194524	1.9605749217188866	-0.4105340549187417	-0.27403565057065205	1.8696190673564086	-0.3629231094912565	-0.2315423943126416	2.0655865784010525	-0.6451782281962889	-0.2273098695528865	1.9643706774187901	-0.6632181595817475	-0.23292110317012735	1.8725112616792778	-0.6688137059404308
27	0.9	-0.25788993879891803	1.8761572248456593	-0.5202352581463455	-0.27046721205319935	1.873915770785061	-0.4403421415004613	-0.26012412009334973	1.7072297745180744	-0.4297029797876324	-0.2566866762897912	1.5529137396114778	-0.41216023019176756	-0.2538790321336253	1.5403709249327362	-0.4597002088988683	-0.2517357508208996	1.548661980416338	-0.4314886396851854	-0.25009793023304816	1.5450897564174224	-0.4278205350372247	-0.2466834789171169	1.8795305864367684	-0.5927508701443642	-0.2399825878567121	1.7050790108878673	-0.5846241063911268	-0.23807248062445652	1.5452419718899912	-0.5743764497338683	-0.3926687089518047	1.4804630138085109	-0.9213396489876318	-0.375765077652662	1.4797776563904272	-0.9508605295184005	-0.22911435527642868	1.533548902454299	-0.5691165014167401	-0.24713356664405284	2.061028211961496	-0.5429709355757562	-0.27401704901941665	2.135657198029968	-0.5288725774508802	-0.2577781009694462	2.0564987382745263	-0.44228357895198833	-0.25616154153660337	1.960279577385455	-0.4104911536989364	-0.27402908616803684	1.8682615696852352	-0.3627739560284068	-0.23066171631362675	2.065468126898926	-0.6422282797079555	-0.22519540910812824	1.9673567332618909	-0.6660873895813362	-0.233091585998612	1.8726580119086478	-0.6689442985667677
28	0.9333333333333333	-0.2603156177620633	1.876466067342452	-0.5184031860276416	-0.27072332054185844	1.8741509036386272	-0.44047420653067043	-0.260332333696203	1.7086545559562285	-0.42976580680909543	-0.25650643976755677	1.5518848767577702	-0.41231348765496584	-0.2538790321336253	1.5403709249327362	-0.4597002088988683	-0.2517357508208996	1.548661980416338	-0.4314886396851854	-0.2495235415512916	1.5448772623229357	-0.4286696791351272	-0.24715166786506187	1.8785186196333294	-0.5926963888390641	-0.24022421811574898	1.7064050906776864	-0.5845272364092157	-0.24114119089858282	1.5451785318144724	-0.5753228828914191	-0.39061805165038566	1.4802673651224958	-0.9244421277953534	-0.26220300679658526	1.5000554365450456	-0.5976229786123161	-0.231942618577435	1.5346199237627218	-0.5706874628168296	-0.24714398424520465	2.061072242821554	-0.5429580503602899	-0.2740003880465522	2.135639587849301	-0.5288843921791576	-0.25775380210744214	2.056647284662416	-0.4422975501771393	-0.25605472453168276	1.9593285049929234	-0.41009227116380087	-0.2738661574992515	1.8688231649322546	-0.3628922449703159	-0.23155114358822376	2.0656214609688885	-0.6450610969135705	-0.22523921635069938	1.967287058900446	-0.6660528084977694	-0.23420561662052997	1.8753654805698374	-0.6723089755295408
29	0.9666666666666667	-0.2599620924299574	1.8748630574721867	-0.5179328290443019	-0.2704648485639564	1.873836652407623	-0.44027441884074575	-0.25990362463208777	1.7078880537437735	-0.43012847360662637	-0.2563262032453224	1.5508560139040624	-0.41246674511816406	-0.2538790321336253	1.5403709249327362	-0.4597002088988683	-0.2517357508208996	1.548661980416338	-0.4314886396851854	-0.2516094187852558	1.5427373260688462	-0.4260205206652273	-0.24598327933791858	1.8782491203789402	-0.5894156455514361	-0.23956172856596963	1.70786637856339	-0.5852901200025312	-0.23840430730385376	1.5440464589341614	-0.5787067729177634	-0.39049581031448305	1.479089243083588	-0.9237036447249765	-0.2599952196546056	1.4997868393585057	-0.5998291037400979	-0.23127336333729656	1.5310448072187905	-0.5714159160154794	-0.24715973797991822	2.061077421497546	-0.542951358918527	-0.2740152567858033	2.135686077564963	-0.5289010328800504	-0.25778045008145667	2.0579618471192505	-0.4427869985285055	-0.256883608029696	1.9611783753373297	-0.40519620672020734	-0.2758712484592803	1.8704134348036217	-0.3610871857413563	-0.2315666943578513	2.065594621477838	-0.6450381058085326	-0.22511271254772958	1.9684684880643115	-0.666083924544569	-0.23410337350297541	1.8766336621739235	-0.6724505378331082
30	1.0	-0.2580934568032429	1.8763971437430513	-0.5205159758064759	-0.268633498952526	1.8753608007543054	-0.4428328470691683	-0.2612171816740397	1.7067311215710583	-0.4330438539465283	-0.256145966723088	1.5498271510503547	-0.41262000258136233	-0.2538790321336253	1.5403709249327362	-0.4597002088988683	-0.2517357508208996	1.548661980416338	-0.4314886396851854	-0.24845164647826182	1.54191502415722	-0.4251245743917136	-0.24677559954889922	1.8809332564230898	-0.5931718695182024	-0.2429001620921135	1.70629352992489	-0.5860086861168714	-0.2407055224024612	1.5453096003114897	-0.5764949338503887	-0.3906995265014616	1.4794036666213572	-0.9235066477459939	-0.25952101921724147	1.5006684010618445	-0.6005599789297678	-0.2321941952745053	1.532897132655541	-0.5751545980996036	-0.24711638038761682	2.062511083196035	-0.5434379331184543	-0.2739522955709247	2.138104050653147	-0.5293495863029362	-0.25778969162872784	2.0580278541886154	-0.4427263083137773	-0.25511350217284157	1.9651535288820474	-0.40853547372637444	-0.27201419209126654	1.8817232003204432	-0.3669222163782846	-0.22943028402921087	2.068150150995307	-0.647610519252894	-0.2249978685706111	1.9695934170382643	-0.6662478128934098	-0.23448492481171798	1.8778036030732106	-0.6758871230146981
31	1.0333333333333334	-0.2555774755945003	1.8798606929328396	-0.5144935667137363	-0.26721795357446687	1.8776096267801385	-0.4396928498784082	-0.264902731170875	1.704401186224875	-0.4287898579764658	-0.256145966723088	1.5498271510503547	-0.41262000258136233	-0.2538790321336253	1.5403709249327362	-0.4597002088988683	-0.2517357508208996	1.548661980416338	-0.4314886396851854	-0.24798172375014135	1.5420820653894278	-0.4259477756911622	-0.24246858145691091	1.883216898541222	-0.5891195084531068	-0.24451023183373835	1.7047184293380315	-0.5840540827523463	-0.23970109427517042	1.5425603002308577	-0.5814909216744613	-0.3906786639667659	1.4792467802052207	-0.9232748886516176	-0.373655859114495	1.4784015988063777	-0.9529083950820667	-0.23401917991553134	1.5320418420524116	-0.5770662312742938	-0.24621055382775361	2.0649404428079983	-0.5406028203242746	-0.2759066029372029	2.140926780710505	-0.5285347060372931	-0.2586743061252296	2.061862309683664	-0.4385970293676967	-0.2567369124631832	1.9678895238117113	-0.3980585154110757	-0.2803856307458167	1.8881146014358718	-0.3540547838548149	-0.23047897814625143	2.0717212229126747	-0.6426441781630821	-0.22355669050618443	1.9750853885660802	-0.6721721260736188	-0.23111989584251308	1.8860636704628457	-0.6847620327662132
32	1.0666666666666667	-0.25590789836178585	1.8914049632599363	-0.5193218149607374	-0.26673788587431374	1.8877707565527508	-0.4414888708532915	-0.26960917940181617	1.7082544533402253	-0.4194276112701096	-0.256145966723088	1.5498271510503547	-0.41262000258136233	-0.2538790321336253	1.5403709249327362	-0.4597002088988683	-0.2517357508208996	1.548661980416338	-0.4314886396851854	-0.24949939358428935	1.5478978679817237	-0.4042472543936466	-0.24256082164085171	1.8959348526758548	-0.5940255007510855	-0.24853700147977925	1.7155270312295978	-0.5811250945789395	-0.23955910594083235	1.5457401607021313	-0.5905246762345573	-0.38862824323364203	1.47851777432384	-0.9264957847497379	-0.37159031930717484	1.4799495738302264	-0.9568632503866316	-0.23246117377097608	1.535774364274379	-0.5835923713901735	-0.24801765138911128	2.069846323579072	-0.5394666651078381	-0.2756935175897065	2.146071897108572	-0.5293720359236291	-0.2615541259663633	2.0659794994454814	-0.4405913497935503	-0.26116343128594594	1.9834809935974378	-0.36882989755216267	-0.2907859684337421	1.9092284873215237	-0.3307948126984899	-0.2303956171686232	2.075679371249253	-0.6434297628172255	-0.22188223922756234	1.986556678703325	-0.6792278143469282	-0.23552882089384844	1.9034659155082112	-0.6943678532896976
